<svg xmlns="http://www.w3.org/2000/svg" width="46" height="46" viewBox="0 0 46 46">
  <g fill="none" fill-rule="evenodd">
    <path fill="#FFF" d="M0 0h46v46H0z"/>
    <g>
      <path d="M23 9c3.54 0 6.36 1.46 8.12 2.69l6-5.84C33.5 2.32 28.7 0 23 0 14.8 0 7.44 4.68 3.44 11.44l7.04 5.48C12.3 12.2 17.18 9 23 9z" fill="#EA4335"/>
      <path d="M44.5 23.5c0-1.56-.14-3.06-.41-4.5H23v8.5h12.16c-.52 2.7-2.08 4.98-4.44 6.54l6.9 5.36C41.82 35.14 44.5 29.82 44.5 23.5z" fill="#4285F4"/>
      <path d="M10.48 27.08A13.46 13.46 0 019 23c0-1.4.24-2.76.66-4.08l-7.05-5.48A22.97 22.97 0 000 23c0 3.64.88 7.08 2.46 10.08l8.02-6z" fill="#FBBC05"/>
      <path d="M23 46c6.22 0 11.44-2.06 15.26-5.6l-8.02-6c-2.23 1.5-5.08 2.4-7.24 2.4-5.82 0-10.7-3.2-13.52-7.92l-8.02 6C7.44 41.32 14.8 46 23 46z" fill="#34A853"/>
      <path d="M44.5 23.5c0-1.56-.14-3.06-.41-4.5H23v8.5h12.16c-.52 2.7-2.08 4.98-4.44 6.54l6.9 5.36C41.82 35.14 44.5 29.82 44.5 23.5z" fill-opacity=".2" fill="#000"/>
    </g>
  </g>
</svg>
